<svg width="24" height="24" viewBox="0 0 24 24" fill="none" xmlns="http://www.w3.org/2000/svg">
<path fill-rule="evenodd" clip-rule="evenodd" d="M20 8.25H4C3.448 8.25 3 8.698 3 9.25V11.25C3 11.802 3.448 12.25 4 12.25H20C20.552 12.25 21 11.802 21 11.25V9.25C21 8.698 20.552 8.25 20 8.25Z" stroke="#32134B" stroke-width="1.5" stroke-linecap="round" stroke-linejoin="round"/>
<path d="M12 21.2813L12 12.2812" stroke="#32134B" stroke-width="1.5" stroke-linecap="round" stroke-linejoin="round"/>
<path d="M15.9389 6.63013C14.79 7.82587 12.9815 8.10936 12.1055 8.10936" stroke="#32134B" stroke-width="1.5" stroke-linecap="round" stroke-linejoin="round"/>
<path d="M12.1054 8.1093C12.1054 8.1093 11.5789 4.78849 12.8738 3.44141" stroke="#32134B" stroke-width="1.5" stroke-linecap="round" stroke-linejoin="round"/>
<path d="M15.9385 6.63013C16.7847 5.74984 16.7847 4.32176 15.9385 3.44147C15.0923 2.56118 13.7207 2.56118 12.8745 3.44147" stroke="#32134B" stroke-width="1.5" stroke-linecap="round" stroke-linejoin="round"/>
<path d="M8.06104 6.63013C9.20989 7.82587 11.0184 8.10936 11.8945 8.10936" stroke="#32134B" stroke-width="1.5" stroke-linecap="round" stroke-linejoin="round"/>
<path d="M11.8949 8.1093C11.8949 8.1093 12.4213 4.78849 11.1265 3.44141" stroke="#32134B" stroke-width="1.5" stroke-linecap="round" stroke-linejoin="round"/>
<path d="M8.06091 6.63013C7.21472 5.74984 7.21472 4.32176 8.06091 3.44147C8.9071 2.56118 10.2787 2.56118 11.1249 3.44147" stroke="#32134B" stroke-width="1.5" stroke-linecap="round" stroke-linejoin="round"/>
<path d="M19 12.25V20.2812C19 20.8332 18.552 21.2812 18 21.2812H6C5.448 21.2812 5 20.8332 5 20.2812V12.25" stroke="#32134B" stroke-width="1.5" stroke-linecap="round" stroke-linejoin="round"/>
</svg>
