<svg width="24" height="24" viewBox="0 0 24 24" fill="none" xmlns="http://www.w3.org/2000/svg">
<path fill-rule="evenodd" clip-rule="evenodd" d="M3.78363 11.25H8.29128C8.36477 9.24 8.72734 7.21815 9.28617 5.62304C9.4954 5.02584 9.73845 4.4701 10.0155 3.99025C6.65259 4.82069 4.10231 7.7136 3.78363 11.25ZM12.0277 3.87093C11.9174 3.94652 11.7849 4.06853 11.633 4.26216C11.3083 4.67604 10.986 5.30793 10.7018 6.11899C10.2031 7.54257 9.86545 9.39198 9.79235 11.25H14.2631C14.19 9.39198 13.8524 7.54257 13.3536 6.11899C13.0695 5.30793 12.7472 4.67604 12.4225 4.26216C12.2705 4.06853 12.1381 3.94652 12.0277 3.87093ZM14.2631 12.75H9.79235C9.86545 14.608 10.2031 16.4574 10.7018 17.881C10.986 18.6921 11.3083 19.324 11.633 19.7378C11.7849 19.9315 11.9174 20.0535 12.0277 20.1291C12.1381 20.0535 12.2705 19.9315 12.4225 19.7378C12.7472 19.324 13.0695 18.6921 13.3536 17.881C13.8524 16.4574 14.19 14.608 14.2631 12.75ZM10.0155 20.0097C9.73845 19.5299 9.4954 18.9742 9.28617 18.377C8.72734 16.7818 8.36477 14.76 8.29128 12.75H3.78363C4.10231 16.2864 6.65259 19.1793 10.0155 20.0097ZM14.0494 19.9935C14.3225 19.5173 14.5624 18.9674 14.7693 18.377C15.3281 16.7818 15.6907 14.76 15.7642 12.75H20.2164C19.8997 16.2636 17.3802 19.142 14.0494 19.9935ZM20.2164 11.25H15.7642C15.6907 9.24 15.3281 7.21815 14.7693 5.62304C14.5624 5.03259 14.3225 4.48266 14.0494 4.00655C17.3802 4.85796 19.8997 7.73636 20.2164 11.25ZM2.25 12C2.25 6.61522 6.61522 2.25 12 2.25C17.3848 2.25 21.75 6.61522 21.75 12C21.75 17.3848 17.3848 21.75 12 21.75C6.61522 21.75 2.25 17.3848 2.25 12Z" fill="#32134B"/>
</svg>
