<svg width="44" height="44" viewBox="0 0 44 44" fill="none" xmlns="http://www.w3.org/2000/svg">
<g clip-path="url(#clip0_1506_40168)">
<path d="M11.5 12.5923L11.5 5.59229" stroke="#32134B" stroke-width="2" stroke-linecap="round" stroke-linejoin="round"/>
<path d="M15 9.09229L8 9.09229" stroke="#32134B" stroke-width="2" stroke-linecap="round" stroke-linejoin="round"/>
<path d="M34.4639 20H40.6166" stroke="#32134B" stroke-width="2" stroke-linecap="round" stroke-linejoin="round"/>
<path d="M37.54 23.0767L37.54 16.9239" stroke="#32134B" stroke-width="2" stroke-linecap="round" stroke-linejoin="round"/>
<path d="M14.7431 20.3289C13.7471 19.3329 12.0611 19.6511 11.4966 20.9415L5.65785 34.2872C5.14666 35.4556 5.40371 36.8179 6.30553 37.7197C7.18865 38.6029 8.51565 38.8694 9.67127 38.3958L23.3025 32.8089C24.6244 32.2671 24.9684 30.5542 23.9583 29.5441L14.7431 20.3289Z" fill="#EFBEF7" stroke="#32134B" stroke-width="2" stroke-linecap="round" stroke-linejoin="round"/>
<path d="M8 30L14 36" stroke="#32134B" stroke-width="2" stroke-linecap="round" stroke-linejoin="round"/>
<path d="M10.4116 24.4116L20.0001 34.0001" stroke="#32134B" stroke-width="2" stroke-linecap="round" stroke-linejoin="round"/>
<circle cx="33.54" cy="31" r="2" fill="#EFBEF7" stroke="#32134B" stroke-width="2" stroke-linecap="round" stroke-linejoin="round"/>
<circle cx="35.54" cy="5.59229" r="2" fill="#FFA082" stroke="#32134B" stroke-width="2" stroke-linecap="round" stroke-linejoin="round"/>
<path d="M25.2276 9.09229L25.9918 11.0165C26.5 12.2962 27.5135 13.3096 28.7932 13.8179L30.7174 14.5821L28.7932 15.3463C27.5135 15.8545 26.5 16.868 25.9918 18.1477L25.2276 20.0719L24.4634 18.1477C23.9552 16.868 22.9417 15.8545 21.662 15.3463L19.7378 14.5821L21.662 13.8179C22.9417 13.3096 23.9552 12.2962 24.4634 11.0165L25.2276 9.09229Z" fill="#FFA082" stroke="#32134B" stroke-width="2" stroke-linecap="round" stroke-linejoin="round"/>
</g>
<defs>
<clipPath id="clip0_1506_40168">
<rect width="44" height="44" fill="white"/>
</clipPath>
</defs>
</svg>
